<?xml version="1.0" encoding="UTF-8"?>
<svg id="Layer_7" data-name="Layer 7" xmlns="http://www.w3.org/2000/svg" viewBox="0 0 1240 1240">
  <defs>
    <style>
      .cls-1 {
        fill: #4d594a;
      }

      .cls-2 {
        fill: #f5f3ef;
      }
    </style>
  </defs>
  <g id="Layer_6_copy" data-name="Layer 6 copy">
    <rect class="cls-2" width="1240" height="1240" rx="122.73" ry="122.73"/>
    <g>
      <path class="cls-1" d="M981.98,541.85c-13.19,0-23.87,10.69-23.87,23.87v114.44h-178.1c-11.58-77.92-78.91-137.9-160-137.9-89.2,0-161.77,72.57-161.77,161.77s72.57,161.77,161.77,161.77c81.09,0,148.43-59.98,160-137.9h178.1v196.73H308.16c-15.14,0-27.46-12.32-27.46-27.46v-331.47c0-13.19-10.69-23.87-23.87-23.87s-23.87,10.69-23.87,23.87v331.47c0,41.47,33.74,75.2,75.2,75.2h697.69v-406.67c0-13.19-10.69-23.87-23.87-23.87ZM620,818.06c-62.87,0-114.02-51.15-114.02-114.02s51.15-114.02,114.02-114.02,114.02,51.15,114.02,114.02-51.15,114.02-114.02,114.02Z"/>
      <path class="cls-1" d="M930.65,1002.82H233.31v78.34c0,41.47,33.74,75.2,75.2,75.2h697.33v-78.34c0-41.47-33.74-75.2-75.2-75.2ZM958.1,1108.62H308.52c-15.14,0-27.46-12.32-27.46-27.46v-30.59h649.59c15.14,0,27.46,12.32,27.46,27.46v30.59Z"/>
      <path class="cls-1" d="M1220.22,683.86L620,83.63,19.78,683.86c-9.32,9.32-9.32,24.44,0,33.76,9.32,9.32,24.44,9.32,33.76,0L620,151.16l566.46,566.46c4.66,4.66,10.77,6.99,16.88,6.99s12.22-2.33,16.88-6.99c9.32-9.32,9.32-24.44,0-33.76Z"/>
    </g>
  </g>
</svg>